<svg xmlns="http://www.w3.org/2000/svg" width="1920" height="1920" viewBox="0 0 1920 1920" version="1.1"><path d="M 1391.988 281.050 C 1391.935 287.276, 1388.420 317.107, 1386.985 323.500 C 1380.086 354.248, 1373.093 371.720, 1359.926 391.109 C 1355.969 396.936, 1345.972 408.401, 1342.750 410.807 C 1340.011 412.852, 1340.582 415, 1343.865 415 C 1363.217 415, 1352.077 492.046, 1328.922 518.351 C 1322.300 525.874, 1325.475 525.733, 1341.500 517.795 C 1399.633 488.997, 1429 439.915, 1429 371.554 C 1429 342.144, 1424.133 326.290, 1408.864 305.963 C 1399.330 293.270, 1396.610 289.152, 1395.020 285 C 1393.425 280.837, 1392.005 278.987, 1391.988 281.050 M 1010.321 1164.258 C 1004.722 1168.241, 996.355 1174.061, 991.726 1177.191 L 983.311 1182.882 982.656 1193.597 C 982.295 1199.490, 981.992 1216.054, 981.983 1230.406 C 981.965 1256.463, 981.052 1271.091, 978.858 1280.468 L 977.696 1285.436 966.755 1296.619 C 945.086 1318.767, 940.051 1329.197, 940.023 1352 C 940 1370.779, 944.741 1381.214, 946.953 1367.250 C 949.253 1352.730, 952.631 1347.841, 961.659 1345.967 C 979.130 1342.340, 995.282 1330.242, 1018.676 1303.260 C 1029.606 1290.654, 1045.043 1273.104, 1045.363 1272.922 C 1045.438 1272.879, 1054.950 1272.643, 1066.500 1272.398 C 1078.050 1272.153, 1091.088 1271.513, 1095.474 1270.976 C 1108.102 1269.430, 1132.366 1269.761, 1141 1271.597 C 1145.125 1272.474, 1149.850 1273.261, 1151.500 1273.346 L 1154.500 1273.500 1154.796 1266.131 C 1155.189 1256.357, 1153.557 1249.059, 1149.681 1243.260 L 1146.500 1238.500 1140.500 1235.500 L 1134.500 1232.500 1114.500 1232.538 L 1094.500 1232.576 1079.500 1234.830 C 1063.672 1237.209, 1031.728 1242.744, 1028.730 1243.626 L 1026.960 1244.148 1025.609 1240.824 C 1023.975 1236.801, 1023.027 1215.844, 1022.936 1181.750 L 1022.870 1157 1021.685 1157.008 C 1021.033 1157.013, 1015.919 1160.275, 1010.321 1164.258" stroke="none" fill="#e5512e" fill-rule="evenodd"/><path d="M 1141.450 121.916 C 1140.928 122.419, 1137.800 123.061, 1134.500 123.342 C 1125.130 124.139, 1116.554 125.633, 1114.243 126.870 C 1113.082 127.492, 1110.778 128, 1109.125 128 C 1107.471 128, 1105.840 128.450, 1105.500 129 C 1105.160 129.550, 1103.360 130, 1101.500 130 C 1099.640 130, 1097.840 130.450, 1097.500 131 C 1097.160 131.550, 1095.810 132, 1094.500 132 C 1093.190 132, 1091.840 132.450, 1091.500 133 C 1091.160 133.550, 1089.777 134, 1088.427 134 C 1087.077 134, 1085.191 134.397, 1084.236 134.883 C 1083.281 135.369, 1081.150 136.324, 1079.500 137.005 C 1077.850 137.686, 1075.150 138.943, 1073.500 139.798 C 1071.850 140.653, 1069.713 141.723, 1068.750 142.176 C 1067.787 142.629, 1066.106 143.450, 1065.014 144 C 1063.921 144.550, 1062.346 145, 1061.514 145 C 1060.681 145, 1060 145.366, 1060 145.813 C 1060 146.261, 1058.425 147.245, 1056.500 148 C 1054.575 148.755, 1053 149.629, 1053 149.943 C 1053 150.256, 1051.537 151.157, 1049.750 151.945 C 1046.210 153.505, 1036.704 160.009, 1036.167 161.237 C 1035.983 161.657, 1035.385 162, 1034.838 162 C 1027.706 162, 991.176 201.168, 973.283 228 C 964.395 241.328, 936 294.883, 936 298.319 C 936 298.669, 934.477 302.229, 932.616 306.228 C 930.756 310.228, 925.757 321.150, 921.508 330.500 C 909.676 356.535, 894.350 384.313, 889.506 388.500 C 888.870 389.050, 886.892 391.525, 885.111 394 C 880.798 399.994, 871.005 411.717, 863 420.468 C 859.425 424.377, 852.484 432.058, 847.575 437.537 C 842.667 443.017, 833.363 453.125, 826.901 460 C 820.438 466.875, 813.429 474.479, 811.325 476.898 C 809.221 479.317, 804.976 484.042, 801.891 487.398 C 791.007 499.238, 772.602 520.580, 760.585 535.294 C 744.308 555.223, 741.492 558.814, 729.051 575.500 C 701.987 611.799, 686.441 634.346, 672.511 657.500 C 668.209 664.650, 662.798 673.425, 660.485 677 C 658.172 680.575, 653.909 687.775, 651.011 693 C 648.113 698.225, 643.804 705.875, 641.435 710 C 623.292 741.588, 598.003 794.497, 577.864 843 C 569.816 862.383, 568.118 866.543, 564.818 874.956 C 544.406 927.006, 528.035 979.297, 519.566 1019.500 C 517.836 1027.714, 516.217 1035.237, 513.542 1047.500 C 512.702 1051.350, 511.600 1057.200, 511.093 1060.500 C 510.586 1063.800, 509.655 1069.650, 509.023 1073.500 C 508.392 1077.350, 506.999 1086.125, 505.927 1093 C 504.855 1099.875, 503.523 1108.200, 502.965 1111.500 C 501.541 1119.931, 499.057 1142.214, 497.892 1157 C 497.351 1163.875, 496.471 1172.425, 495.936 1176 C 495.402 1179.575, 494.523 1189.925, 493.983 1199 C 493.442 1208.075, 492.483 1222.700, 491.850 1231.500 C 491.175 1240.897, 490.674 1273.913, 490.637 1311.500 L 490.573 1375.500 492.318 1405 C 495.719 1462.505, 500.822 1526.031, 502.600 1533 C 502.951 1534.375, 503.836 1541.125, 504.568 1548 C 506.708 1568.118, 511.429 1603.523, 513.902 1618 C 514.513 1621.575, 515.660 1628.325, 516.451 1633 C 517.242 1637.675, 518.588 1645.550, 519.440 1650.500 C 520.293 1655.450, 521.407 1661.975, 521.916 1665 C 523.162 1672.400, 527.138 1692.245, 531.433 1712.500 C 544.926 1776.128, 558.845 1808.046, 565.973 1791.700 C 567.220 1788.840, 569.038 1784.700, 570.013 1782.500 C 572.726 1776.380, 578.356 1760.352, 584.589 1741 C 597.923 1699.601, 607.428 1671.594, 619.183 1639.065 C 625.866 1620.575, 645.943 1569.945, 654.503 1550 C 656.509 1545.325, 658.754 1539.925, 659.491 1538 C 661.580 1532.545, 679.417 1492.428, 685.502 1479.500 C 694.867 1459.602, 698 1452.799, 698 1452.361 C 698 1451.241, 719.007 1410.045, 722.661 1404 C 737.649 1379.201, 736.363 1381.119, 754.557 1356.437 C 771.207 1333.848, 803.026 1302.462, 830.019 1282 C 831.833 1280.625, 833.808 1279.031, 834.408 1278.458 C 835.009 1277.885, 840.675 1273.876, 847 1269.549 C 853.325 1265.222, 858.725 1261.416, 859 1261.091 C 859.771 1260.180, 873.903 1251, 874.533 1251 C 874.840 1251, 878.332 1248.827, 882.295 1246.170 C 886.258 1243.514, 891.862 1240.067, 894.750 1238.511 C 897.638 1236.955, 900 1235.304, 900 1234.841 C 900 1234.378, 900.900 1234, 902 1234 C 903.100 1234, 904 1233.550, 904 1233 C 904 1232.450, 904.675 1232, 905.500 1232 C 906.325 1232, 907 1231.550, 907 1231 C 907 1230.450, 907.441 1230, 907.981 1230 C 908.520 1230, 911.366 1228.462, 914.306 1226.581 C 917.245 1224.701, 921.304 1222.226, 923.325 1221.081 C 925.346 1219.937, 928.515 1218.142, 930.366 1217.092 C 932.217 1216.043, 937.633 1212.668, 942.401 1209.592 C 947.169 1206.517, 951.434 1204, 951.880 1204 C 952.325 1204, 953.505 1203.100, 954.500 1202 C 955.495 1200.900, 956.703 1200, 957.184 1200 C 957.665 1200, 962.433 1197.164, 967.779 1193.698 C 979.113 1186.350, 980.375 1185.775, 981.878 1187.278 L 983 1188.400 983 1185.747 L 983 1183.094 991.571 1177.297 C 996.285 1174.109, 1004.722 1168.241, 1010.321 1164.258 C 1015.919 1160.275, 1020.837 1157.013, 1021.249 1157.008 C 1021.881 1157.001, 1033.481 1148.547, 1035 1146.986 C 1035.275 1146.704, 1037.974 1144.454, 1040.997 1141.986 C 1057.282 1128.696, 1083.671 1103.472, 1096.423 1089.006 C 1103.620 1080.843, 1117.562 1063.578, 1122.270 1057 C 1124.829 1053.425, 1129.753 1046.565, 1133.211 1041.757 C 1152.800 1014.522, 1171.569 981.104, 1188.959 942.500 C 1195.860 927.181, 1203.180 907.118, 1212.493 878 C 1215.257 869.356, 1218.094 858.059, 1221.406 842.500 C 1222.109 839.200, 1222.975 835.600, 1223.330 834.500 C 1226.628 824.288, 1231.383 789.912, 1233.162 763.415 C 1235.131 734.093, 1234.741 711.863, 1231.505 669 L 1230.863 660.500 1244.257 634 C 1251.623 619.425, 1258.766 605.700, 1260.129 603.500 C 1261.493 601.300, 1264.572 595.675, 1266.973 591 C 1269.373 586.325, 1272.386 580.700, 1273.668 578.500 C 1286.218 556.972, 1294.713 531.740, 1296.899 509.500 C 1297.494 503.450, 1298.264 496.250, 1298.610 493.500 C 1299.473 486.644, 1299.409 444.880, 1298.516 431.949 L 1297.788 421.398 1307.503 421.823 C 1316.459 422.215, 1320.463 421.655, 1327.500 419.025 C 1337.545 415.271, 1344.635 414.968, 1349.346 418.092 L 1352.500 420.183 1349.694 417.592 C 1347.998 416.025, 1345.724 415, 1343.944 415 C 1340.585 415, 1339.980 412.875, 1342.750 410.807 C 1345.972 408.401, 1355.969 396.936, 1359.926 391.109 C 1373.086 371.730, 1380.188 353.982, 1386.979 323.500 C 1388.287 317.631, 1389.807 306.113, 1391.071 292.500 C 1392.204 280.302, 1395.640 277.090, 1396.022 287.872 C 1396.034 288.217, 1396.960 289.625, 1398.079 291 L 1400.113 293.500 1398.168 289.500 C 1395.120 283.231, 1394.091 278.407, 1393.049 265.500 C 1392.517 258.900, 1391.626 252.150, 1391.071 250.500 C 1390.516 248.850, 1388.965 243.900, 1387.626 239.500 C 1379.850 213.961, 1359.640 184.461, 1337.688 166.604 C 1330.977 161.145, 1319.261 153, 1318.120 153 C 1317.596 153, 1317.017 152.662, 1316.833 152.250 C 1316.650 151.838, 1314.250 150.395, 1311.500 149.044 C 1308.750 147.694, 1305.306 145.781, 1303.846 144.794 C 1302.386 143.808, 1300.515 143, 1299.688 143 C 1298.861 143, 1295.781 141.821, 1292.842 140.381 C 1289.904 138.940, 1286.375 137.313, 1285 136.764 C 1283.625 136.215, 1281.719 135.369, 1280.764 134.883 C 1279.809 134.397, 1277.446 134, 1275.514 134 C 1273.581 134, 1272 133.550, 1272 133 C 1272 132.450, 1270.650 132, 1269 132 C 1267.350 132, 1266 131.550, 1266 131 C 1266 130.450, 1264.452 130, 1262.559 130 C 1260.666 130, 1258.840 129.550, 1258.500 129 C 1258.160 128.450, 1256.835 128, 1255.555 128 C 1254.276 128, 1251.940 127.328, 1250.364 126.506 C 1248.729 125.653, 1244.844 125.010, 1241.309 125.006 C 1237.904 125.003, 1234.840 124.550, 1234.500 124 C 1234.160 123.450, 1231.010 123, 1227.500 123 C 1223.990 123, 1220.840 122.550, 1220.500 122 C 1219.702 120.710, 1142.786 120.628, 1141.450 121.916 M 1400.772 295 C 1401.334 295.825, 1404.984 300.758, 1408.883 305.963 C 1418.597 318.930, 1423.233 328.831, 1427.396 345.500 C 1427.670 346.600, 1427.646 345.098, 1427.342 342.162 C 1426.438 333.450, 1418.730 316.113, 1412.151 308 C 1406.390 300.894, 1405.376 299.689, 1402.478 296.500 C 1400.978 294.850, 1400.210 294.175, 1400.772 295 M 1428.774 366.342 C 1429.184 390.606, 1429.631 392.829, 1429.810 371.500 C 1429.898 361.050, 1429.639 351.979, 1429.235 351.342 C 1428.831 350.705, 1428.623 357.455, 1428.774 366.342 M 1428 392 C 1428 392.733, 1428.300 393.033, 1428.667 392.667 C 1429.033 392.300, 1429.033 391.700, 1428.667 391.333 C 1428.300 390.967, 1428 391.267, 1428 392 M 1427.232 402 C 1427.232 403.925, 1427.438 404.712, 1427.689 403.750 C 1427.941 402.788, 1427.941 401.212, 1427.689 400.250 C 1427.438 399.288, 1427.232 400.075, 1427.232 402 M 1426.195 408.500 C 1426.215 410.150, 1426.439 410.704, 1426.693 409.731 C 1426.947 408.758, 1426.930 407.408, 1426.656 406.731 C 1426.382 406.054, 1426.175 406.850, 1426.195 408.500 M 1424.625 415.125 C 1423.791 419.293, 1424.599 420.101, 1425.500 416 C 1425.880 414.271, 1425.982 412.649, 1425.727 412.394 C 1425.472 412.139, 1424.976 413.368, 1424.625 415.125 M 1352 421.500 C 1352 421.775, 1352.225 422, 1352.500 422 C 1352.775 422, 1353 421.775, 1353 421.500 C 1353 421.225, 1352.775 421, 1352.500 421 C 1352.225 421, 1352 421.225, 1352 421.500 M 1422.571 423.571 C 1422.204 425.037, 1422.096 426.429, 1422.331 426.665 C 1422.567 426.900, 1423.061 425.894, 1423.429 424.429 C 1423.796 422.963, 1423.904 421.571, 1423.669 421.335 C 1423.433 421.100, 1422.939 422.106, 1422.571 423.571 M 1353 425 C 1353 425.733, 1353.300 426.033, 1353.667 425.667 C 1354.033 425.300, 1354.033 424.700, 1353.667 424.333 C 1353.300 423.967, 1353 424.267, 1353 425 M 1421 428.500 C 1421 428.775, 1421.225 429, 1421.500 429 C 1421.775 429, 1422 428.775, 1422 428.500 C 1422 428.225, 1421.775 428, 1421.500 428 C 1421.225 428, 1421 428.225, 1421 428.500 M 1354.300 435 C 1354.300 438.025, 1354.487 439.262, 1354.716 437.750 C 1354.945 436.238, 1354.945 433.762, 1354.716 432.250 C 1354.487 430.738, 1354.300 431.975, 1354.300 435 M 1420 432 C 1420 432.733, 1420.300 433.033, 1420.667 432.667 C 1421.033 432.300, 1421.033 431.700, 1420.667 431.333 C 1420.300 430.967, 1420 431.267, 1420 432 M 1418.564 435.707 L 1417.882 437.500 1419.124 436.267 C 1419.808 435.588, 1420.115 434.781, 1419.807 434.474 C 1419.499 434.166, 1418.940 434.721, 1418.564 435.707 M 1417 439.500 C 1417 439.775, 1417.225 440, 1417.500 440 C 1417.775 440, 1418 439.775, 1418 439.500 C 1418 439.225, 1417.775 439, 1417.500 439 C 1417.225 439, 1417 439.225, 1417 439.500 M 1416 442 C 1416 442.733, 1416.300 443.033, 1416.667 442.667 C 1417.033 442.300, 1417.033 441.700, 1416.667 441.333 C 1416.300 440.967, 1416 441.267, 1416 442 M 1353.272 446 C 1353.272 448.475, 1353.467 449.488, 1353.706 448.250 C 1353.944 447.012, 1353.944 444.988, 1353.706 443.750 C 1353.467 442.512, 1353.272 443.525, 1353.272 446 M 1415 444.500 C 1415 444.775, 1415.225 445, 1415.500 445 C 1415.775 445, 1416 444.775, 1416 444.500 C 1416 444.225, 1415.775 444, 1415.500 444 C 1415.225 444, 1415 444.225, 1415 444.500 M 1414 446.500 C 1414 446.775, 1414.225 447, 1414.500 447 C 1414.775 447, 1415 446.775, 1415 446.500 C 1415 446.225, 1414.775 446, 1414.500 446 C 1414.225 446, 1414 446.225, 1414 446.500 M 1413 448.500 C 1413 448.775, 1413.225 449, 1413.500 449 C 1413.775 449, 1414 448.775, 1414 448.500 C 1414 448.225, 1413.775 448, 1413.500 448 C 1413.225 448, 1413 448.225, 1413 448.500 M 1412 450.500 C 1412 450.775, 1412.225 451, 1412.500 451 C 1412.775 451, 1413 450.775, 1413 450.500 C 1413 450.225, 1412.775 450, 1412.500 450 C 1412.225 450, 1412 450.225, 1412 450.500 M 1411 452.500 C 1411 452.775, 1411.225 453, 1411.500 453 C 1411.775 453, 1412 452.775, 1412 452.500 C 1412 452.225, 1411.775 452, 1411.500 452 C 1411.225 452, 1411 452.225, 1411 452.500 M 1352 455 C 1352 455.733, 1352.300 456.033, 1352.667 455.667 C 1353.033 455.300, 1353.033 454.700, 1352.667 454.333 C 1352.300 453.967, 1352 454.267, 1352 455 M 1409 455.500 C 1409 455.775, 1409.225 456, 1409.500 456 C 1409.775 456, 1410 455.775, 1410 455.500 C 1410 455.225, 1409.775 455, 1409.500 455 C 1409.225 455, 1409 455.225, 1409 455.500 M 1408 457.500 C 1408 457.775, 1408.225 458, 1408.500 458 C 1408.775 458, 1409 457.775, 1409 457.500 C 1409 457.225, 1408.775 457, 1408.500 457 C 1408.225 457, 1408 457.225, 1408 457.500 M 1351 460 C 1351 460.733, 1351.300 461.033, 1351.667 460.667 C 1352.033 460.300, 1352.033 459.700, 1351.667 459.333 C 1351.300 458.967, 1351 459.267, 1351 460 M 1406 461 C 1405.411 462.100, 1405.155 463, 1405.430 463 C 1405.705 463, 1406.411 462.100, 1407 461 C 1407.589 459.900, 1407.845 459, 1407.570 459 C 1407.295 459, 1406.589 459.900, 1406 461 M 1350.079 463.583 C 1350.127 464.748, 1350.364 464.985, 1350.683 464.188 C 1350.972 463.466, 1350.936 462.603, 1350.604 462.271 C 1350.272 461.939, 1350.036 462.529, 1350.079 463.583 M 1403 465.500 C 1403 465.775, 1403.225 466, 1403.500 466 C 1403.775 466, 1404 465.775, 1404 465.500 C 1404 465.225, 1403.775 465, 1403.500 465 C 1403.225 465, 1403 465.225, 1403 465.500 M 1349.079 468.583 C 1349.127 469.748, 1349.364 469.985, 1349.683 469.188 C 1349.972 468.466, 1349.936 467.603, 1349.604 467.271 C 1349.272 466.939, 1349.036 467.529, 1349.079 468.583 M 1400.405 469.155 C 1399.962 469.870, 1400.130 470.038, 1400.845 469.595 C 1401.998 468.883, 1402.393 468, 1401.559 468 C 1401.316 468, 1400.797 468.520, 1400.405 469.155 M 1347.624 473.539 C 1347.281 474.432, 1347.039 475.914, 1347.086 476.832 C 1347.133 477.749, 1347.568 477.173, 1348.053 475.550 C 1348.996 472.394, 1348.662 470.832, 1347.624 473.539 M 1398 472.500 C 1398 472.775, 1398.225 473, 1398.500 473 C 1398.775 473, 1399 472.775, 1399 472.500 C 1399 472.225, 1398.775 472, 1398.500 472 C 1398.225 472, 1398 472.225, 1398 472.500 M 1393.004 478.496 C 1391.714 479.869, 1390.848 481.160, 1391.079 481.364 C 1391.311 481.569, 1392.547 480.446, 1393.826 478.868 C 1396.689 475.338, 1396.185 475.110, 1393.004 478.496 M 1346 480 C 1346 480.733, 1346.300 481.033, 1346.667 480.667 C 1347.033 480.300, 1347.033 479.700, 1346.667 479.333 C 1346.300 478.967, 1346 479.267, 1346 480 M 1345 484 C 1345 484.733, 1345.300 485.033, 1345.667 484.667 C 1346.033 484.300, 1346.033 483.700, 1345.667 483.333 C 1345.300 482.967, 1345 483.267, 1345 484 M 1389 483.500 C 1389 483.775, 1389.225 484, 1389.500 484 C 1389.775 484, 1390 483.775, 1390 483.500 C 1390 483.225, 1389.775 483, 1389.500 483 C 1389.225 483, 1389 483.225, 1389 483.500 M 1381 491 C 1377.425 494.263, 1374.771 496.948, 1375.101 496.967 C 1375.432 496.985, 1378.582 494.309, 1382.101 491.021 C 1385.621 487.733, 1388.275 485.048, 1388 485.054 C 1387.725 485.061, 1384.575 487.737, 1381 491 M 1343.079 489.583 C 1343.127 490.748, 1343.364 490.985, 1343.683 490.188 C 1343.972 489.466, 1343.936 488.603, 1343.604 488.271 C 1343.272 487.939, 1343.036 488.529, 1343.079 489.583 M 1342 492.500 C 1342 492.775, 1342.225 493, 1342.500 493 C 1342.775 493, 1343 492.775, 1343 492.500 C 1343 492.225, 1342.775 492, 1342.500 492 C 1342.225 492, 1342 492.225, 1342 492.500 M 1340.624 495.539 C 1339.659 498.053, 1339.943 498.702, 1341.122 496.675 C 1341.706 495.671, 1341.973 494.639, 1341.715 494.382 C 1341.458 494.124, 1340.966 494.645, 1340.624 495.539 M 1368 501.637 C 1362.181 506.207, 1361.764 506.735, 1365.810 504.406 C 1368.686 502.750, 1374.107 497.908, 1372.924 498.051 C 1372.691 498.080, 1370.475 499.693, 1368 501.637 M 1336.801 504.333 C 1335.377 507.236, 1331.240 512.850, 1327.606 516.810 C 1323.973 520.769, 1321 524.471, 1321 525.036 C 1321 526.686, 1323.950 527.353, 1326.317 526.238 C 1327.518 525.672, 1330.975 524.081, 1334 522.701 C 1342.579 518.789, 1347.196 516.512, 1351.113 514.263 C 1357.504 510.593, 1359 509.536, 1359 508.691 C 1359 508.236, 1357.760 508.746, 1356.245 509.825 C 1353.070 512.086, 1332.596 522.416, 1329.259 523.441 C 1325.077 524.725, 1324.883 522.940, 1328.729 518.547 C 1332.452 514.294, 1340.593 500.260, 1339.799 499.465 C 1339.574 499.240, 1338.224 501.431, 1336.801 504.333 M 1360 507.500 C 1360 507.775, 1360.225 508, 1360.500 508 C 1360.775 508, 1361 507.775, 1361 507.500 C 1361 507.225, 1360.775 507, 1360.500 507 C 1360.225 507, 1360 507.225, 1360 507.500 M 1022 1158.500 C 1022 1158.775, 1022.225 1159, 1022.500 1159 C 1022.775 1159, 1023 1158.775, 1023 1158.500 C 1023 1158.225, 1022.775 1158, 1022.500 1158 C 1022.225 1158, 1022 1158.225, 1022 1158.500 M 981.441 1232 C 981.441 1247.675, 981.579 1254.088, 981.748 1246.250 C 981.917 1238.412, 981.917 1225.588, 981.748 1217.750 C 981.579 1209.912, 981.441 1216.325, 981.441 1232 M 1023.079 1216.583 C 1023.127 1217.748, 1023.364 1217.985, 1023.683 1217.188 C 1023.972 1216.466, 1023.936 1215.603, 1023.604 1215.271 C 1023.272 1214.939, 1023.036 1215.529, 1023.079 1216.583 M 1116.728 1229.605 C 1116.306 1230.027, 1110.457 1230.732, 1103.730 1231.172 C 1087.356 1232.241, 1078.305 1233.349, 1077.316 1234.406 C 1076.855 1234.899, 1078.240 1235.019, 1080.500 1234.682 C 1093.144 1232.798, 1108.307 1231.843, 1120.560 1232.159 L 1134.500 1232.518 1140.107 1235.138 C 1145.873 1237.833, 1149.760 1241.906, 1152.423 1248.044 C 1153.247 1249.945, 1153.939 1250.920, 1153.961 1250.210 C 1154.048 1247.337, 1149.801 1241.019, 1144.567 1236.236 L 1139.019 1231.165 1132.260 1230.642 C 1128.542 1230.355, 1123.699 1229.831, 1121.498 1229.478 C 1119.297 1229.126, 1117.151 1229.183, 1116.728 1229.605 M 1061.199 1235.986 C 1052.290 1238.097, 1056.851 1238.445, 1068.500 1236.545 L 1076.500 1235.239 1070.500 1235.222 C 1067.200 1235.212, 1063.015 1235.556, 1061.199 1235.986 M 1049 1239.052 C 1047.925 1239.785, 1048.634 1239.884, 1051.500 1239.404 C 1056.461 1238.574, 1057.259 1237.995, 1053.417 1238.015 C 1051.813 1238.024, 1049.825 1238.490, 1049 1239.052 M 1038 1241.052 C 1036.925 1241.785, 1037.634 1241.884, 1040.500 1241.404 C 1045.461 1240.574, 1046.259 1239.995, 1042.417 1240.015 C 1040.813 1240.024, 1038.825 1240.490, 1038 1241.052 M 1026.550 1242.933 C 1027.106 1243.480, 1028.952 1243.522, 1031 1243.036 L 1034.500 1242.205 1030.050 1242.102 C 1027.284 1242.039, 1025.960 1242.353, 1026.550 1242.933 M 1154.456 1262.774 L 1154.500 1273.500 1151.500 1273.346 C 1149.850 1273.261, 1145.125 1272.474, 1141 1271.597 C 1132.366 1269.761, 1108.102 1269.430, 1095.474 1270.976 C 1091.088 1271.513, 1078.050 1272.153, 1066.500 1272.398 C 1054.950 1272.643, 1045.438 1272.879, 1045.363 1272.922 C 1045.043 1273.104, 1029.606 1290.654, 1018.676 1303.260 C 995.282 1330.242, 979.130 1342.340, 961.659 1345.967 C 952.631 1347.841, 949.253 1352.730, 946.953 1367.250 C 945.636 1375.569, 944.868 1376.579, 943.153 1372.250 C 939.921 1364.089, 939.042 1344.195, 941.463 1334 L 942.056 1331.500 940.778 1334 C 939.849 1335.818, 939.530 1342.249, 939.610 1357.571 L 939.720 1378.642 941.437 1383.809 C 944.454 1392.893, 945.557 1392.330, 947.432 1380.750 C 949.555 1367.633, 951.890 1364.838, 963.161 1361.915 C 971.345 1359.793, 973.623 1358.810, 979.680 1354.781 C 981.979 1353.251, 984.112 1352, 984.419 1352 C 986.679 1352, 1005.673 1334.148, 1015.354 1322.924 C 1020.774 1316.641, 1027.453 1308.911, 1030.196 1305.747 C 1032.940 1302.583, 1036.605 1298.220, 1038.342 1296.051 C 1040.079 1293.883, 1043.318 1291.226, 1045.541 1290.148 L 1049.581 1288.187 1079.041 1287.546 C 1095.243 1287.193, 1111.650 1286.836, 1115.500 1286.751 C 1119.350 1286.667, 1126.550 1287.186, 1131.500 1287.905 C 1136.450 1288.623, 1143.400 1289.431, 1146.945 1289.700 L 1153.389 1290.188 1154.695 1288.403 C 1156.155 1286.406, 1156.591 1255.478, 1155.190 1253.274 C 1154.762 1252.599, 1154.431 1256.874, 1154.456 1262.774 M 980 1270 C 980 1270.733, 980.300 1271.033, 980.667 1270.667 C 981.033 1270.300, 981.033 1269.700, 980.667 1269.333 C 980.300 1268.967, 980 1269.267, 980 1270 M 977 1284.500 C 977 1284.775, 977.225 1285, 977.500 1285 C 977.775 1285, 978 1284.775, 978 1284.500 C 978 1284.225, 977.775 1284, 977.500 1284 C 977.225 1284, 977 1284.225, 977 1284.500 M 964 1298.500 C 964 1298.775, 964.225 1299, 964.500 1299 C 964.775 1299, 965 1298.775, 965 1298.500 C 965 1298.225, 964.775 1298, 964.500 1298 C 964.225 1298, 964 1298.225, 964 1298.500 M 962 1300.500 C 962 1300.775, 962.225 1301, 962.500 1301 C 962.775 1301, 963 1300.775, 963 1300.500 C 963 1300.225, 962.775 1300, 962.500 1300 C 962.225 1300, 962 1300.225, 962 1300.500 M 960 1302.500 C 960 1302.775, 960.225 1303, 960.500 1303 C 960.775 1303, 961 1302.775, 961 1302.500 C 961 1302.225, 960.775 1302, 960.500 1302 C 960.225 1302, 960 1302.225, 960 1302.500 M 956 1306.500 C 956 1306.775, 956.225 1307, 956.500 1307 C 956.775 1307, 957 1306.775, 957 1306.500 C 957 1306.225, 956.775 1306, 956.500 1306 C 956.225 1306, 956 1306.225, 956 1306.500 M 952.405 1311.250 L 950.500 1313.500 952.750 1311.595 C 954.864 1309.805, 955.455 1309, 954.655 1309 C 954.465 1309, 953.453 1310.013, 952.405 1311.250 M 949.405 1315.155 C 948.962 1315.870, 949.130 1316.038, 949.845 1315.595 C 950.480 1315.203, 951 1314.684, 951 1314.441 C 951 1313.607, 950.117 1314.002, 949.405 1315.155 M 948 1317.500 C 948 1317.775, 948.225 1318, 948.500 1318 C 948.775 1318, 949 1317.775, 949 1317.500 C 949 1317.225, 948.775 1317, 948.500 1317 C 948.225 1317, 948 1317.225, 948 1317.500 M 947 1319.500 C 947 1319.775, 947.225 1320, 947.500 1320 C 947.775 1320, 948 1319.775, 948 1319.500 C 948 1319.225, 947.775 1319, 947.500 1319 C 947.225 1319, 947 1319.225, 947 1319.500 M 945 1322.500 C 945 1322.775, 945.225 1323, 945.500 1323 C 945.775 1323, 946 1322.775, 946 1322.500 C 946 1322.225, 945.775 1322, 945.500 1322 C 945.225 1322, 945 1322.225, 945 1322.500 M 943.162 1326.543 C 942.523 1327.946, 942.018 1329.635, 942.039 1330.297 C 942.061 1330.959, 942.743 1329.969, 943.554 1328.099 C 945.263 1324.161, 944.902 1322.726, 943.162 1326.543" stroke="none" fill="#54893c" fill-rule="evenodd"/></svg>